<?xml version="1.0" standalone="no"?>
<!DOCTYPE svg PUBLIC "-//W3C//DTD SVG 1.1//EN" "http://www.w3.org/Graphics/SVG/1.1/DTD/svg11.dtd">
<svg width="244" height="244" version="1.1" xmlns="http://www.w3.org/2000/svg">
  <title>15 cells diameter theta maze</title>
  <desc>15 cells diameter theta maze generated by The Maze Generator Website (http://www.mazegenerator.net/).</desc>
  <g fill="none" stroke="#000000" stroke-width="2" stroke-linecap="square">
    <path d="M 106.02943725152286,139.97056274847714 A 24,24 0 1,1 123,147" />
    <path d="M 151.2842712474619,94.7157287525381 A 40,40 0 0,1 159.95518130045147,107.6926627053964" />
    <path d="M 163,123 A 40,40 0 0,1 151.2842712474619,151.2842712474619" />
    <path d="M 138.3073372946036,159.95518130045147 A 40,40 0 0,1 107.69266270539639,86.044818699548543" />
    <path d="M 83.402020253553331,83.402020253553346 A 56,56 0 0,1 123,67" />
    <path d="M 174.73725382063205,101.56972778755497 A 56,56 0 0,1 174.73725382063208,144.43027221244503" />
    <path d="M 162.59797974644667,162.59797974644664 A 56,56 0 0,1 144.43027221244503,174.73725382063205" />
    <path d="M 123,179 A 56,56 0 0,1 71.262746179367952,144.43027221244506" />
    <path d="M 67,123.00000000000001 A 56,56 0 0,1 71.262746179367952,101.56972778755497" />
    <path d="M 123,51 A 72,72 0 0,1 137.04650318516124,52.383459810967409" />
    <path d="M 150.55320713028647,56.48067365918736 A 72,72 0 0,1 193.61654018903261,108.95349681483876" />
    <path d="M 193.61654018903261,137.04650318516124 A 72,72 0 0,1 182.86581208578326,163.00105677741135" />
    <path d="M 173.91168824543144,173.91168824543141 A 72,72 0 0,1 163.00105677741135,182.86581208578326" />
    <path d="M 137.04650318516127,193.61654018903261 A 72,72 0 0,1 108.95349681483876,193.61654018903261" />
    <path d="M 95.446792869713548,189.51932634081265 A 72,72 0 0,1 72.0883117545686,173.91168824543144" />
    <path d="M 63.134187914216739,163.00105677741135 A 72,72 0 0,1 52.383459810967409,108.95349681483876" />
    <path d="M 56.48067365918736,95.446792869713519 A 72,72 0 0,1 72.088311754568565,72.0883117545686" />
    <path d="M 82.99894322258865,63.134187914216746 A 72,72 0 0,1 108.95349681483873,52.383459810967409" />
    <path d="M 105.83205166258067,36.690895324515722 A 88,88 0 0,1 123,35" />
    <path d="M 185.22539674441617,60.774603255583813 A 88,88 0 0,1 171.89018050572497,196.16932588262398" />
    <path d="M 156.6761420481279,204.30139886099323 A 88,88 0 0,1 123.00000000000001,211" />
    <path d="M 89.323857951872114,204.30139886099323 A 88,88 0 0,1 60.774603255583827,185.2253967444162" />
    <path d="M 49.83067411737602,171.890180505725 A 88,88 0 0,1 36.690895324515722,140.16794833741932" />
    <path d="M 36.690895324515722,105.83205166258071 A 88,88 0 0,1 41.698601139006769,89.323857951872071" />
    <path d="M 49.830674117375992,74.10981949427503 A 88,88 0 0,1 74.109819494275,49.83067411737602" />
    <path d="M 123,19 A 104,104 0 0,1 162.79907696596933,26.916528618826177" />
    <path d="M 180.77930423403862,36.527160320535287 A 104,104 0 0,1 196.53910524340094,49.46089475659906" />
    <path d="M 209.4728396794647,65.220695765961366 A 104,104 0 0,1 225.00166916193598,102.71060651032266" />
    <path d="M 227,123 A 104,104 0 0,1 225.00166916193598,143.28939348967734" />
    <path d="M 219.08347138117381,162.79907696596933 A 104,104 0 0,1 196.53910524340097,196.53910524340094" />
    <path d="M 123.00000000000001,227 A 104,104 0 0,1 102.71060651032261,20.998330838064049" />
    <path d="M 146.41083864193539,5.3057663516123483 A 120,120 0 1,1 123,3" />
  </g>
  <g fill="none" stroke="#000000" stroke-width="2" stroke-linecap="butt">
    <line x1="123" y1="3" x2="123" y2="35" />
    <line x1="123" y1="51" x2="123" y2="99" />
    <line x1="140.16794833741929" y1="36.690895324515722" x2="137.04650318516124" y2="52.383459810967409" />
    <line x1="162.79907696596933" y1="26.916528618826177" x2="138.3073372946036" y2="86.044818699548529" />
    <line x1="171.890180505725" y1="49.83067411737602" x2="163.00105677741135" y2="63.134187914216746" />
    <line x1="196.53910524340094" y1="49.460894756599046" x2="185.22539674441617" y2="60.774603255583813" />
    <line x1="162.59797974644664" y1="83.402020253553331" x2="139.97056274847714" y2="106.02943725152286" />
    <line x1="222.77635347630542" y1="56.331572037647732" x2="209.4728396794647" y2="65.220695765961352" />
    <line x1="189.51932634081265" y1="95.446792869713533" x2="174.73725382063205" y2="101.56972778755497" />
    <line x1="211" y1="123" x2="195" y2="123" />
    <line x1="179" y1="123" x2="163" y2="123" />
    <line x1="240.69423364838764" y1="146.41083864193539" x2="225.00166916193598" y2="143.28939348967734" />
    <line x1="189.51932634081265" y1="150.55320713028647" x2="174.73725382063205" y2="144.43027221244503" />
    <line x1="207.85281374238571" y1="207.85281374238571" x2="196.53910524340097" y2="196.53910524340094" />
    <line x1="173.91168824543144" y1="173.91168824543144" x2="151.2842712474619" y2="151.2842712474619" />
    <line x1="180.77930423403862" y1="209.4728396794647" x2="163.00105677741135" y2="182.86581208578326" />
    <line x1="168.9220118838108" y1="233.86554390135441" x2="162.79907696596933" y2="219.08347138117381" />
    <line x1="156.6761420481279" y1="204.30139886099323" x2="150.55320713028647" y2="189.51932634081265" />
    <line x1="146.41083864193544" y1="240.69423364838764" x2="140.16794833741932" y2="209.30910467548426" />
    <line x1="123.00000000000001" y1="195" x2="123" y2="179" />
    <line x1="123" y1="163" x2="123" y2="147" />
    <line x1="102.71060651032265" y1="225.00166916193598" x2="108.95349681483876" y2="193.61654018903261" />
    <line x1="49.46089475659906" y1="196.53910524340097" x2="60.774603255583827" y2="185.2253967444162" />
    <line x1="72.088311754568579" y1="173.91168824543144" x2="83.402020253553346" y2="162.59797974644667" />
    <line x1="49.83067411737602" y1="171.890180505725" x2="63.134187914216746" y2="163.00105677741135" />
    <line x1="19" y1="123.00000000000001" x2="67" y2="123.00000000000001" />
    <line x1="41.698601139006783" y1="89.323857951872071" x2="56.48067365918736" y2="95.446792869713519" />
    <line x1="71.262746179367952" y1="101.56972778755497" x2="86.044818699548529" y2="107.6926627053964" />
    <line x1="60.774603255583806" y1="60.774603255583834" x2="83.402020253553331" y2="83.402020253553346" />
    <line x1="83.200923034030609" y1="26.916528618826206" x2="95.446792869713491" y2="56.480673659187374" />
    <line x1="105.83205166258067" y1="36.690895324515736" x2="108.95349681483873" y2="52.383459810967423" />
  </g>
</svg>
